Coordinates
version=1
nRows=14
nColumns=24
inDegrees=yes

Units are S.I. units (second, meters, Newtons, ...)
Angles are in degrees.

endheader
time	pelvis_tilt	pelvis_list	pelvis_rotation	pelvis_tx	pelvis_ty	pelvis_tz	hip_flexion_r	hip_adduction_r	hip_rotation_r	knee_angle_r	ankle_angle_r	subtalar_angle_r	mtp_angle_r	hip_flexion_l	hip_adduction_l	hip_rotation_l	knee_angle_l	ankle_angle_l	subtalar_angle_l	mtp_angle_l	lumbar_extension	lumbar_bending	lumbar_rotation
      1.06300000	     -3.53208293	      0.39721965	     -4.78939075	     -0.14830537	      0.88223768	      0.38029716	    -14.40665275	      3.85841114	     -3.00681846	     -7.09247371	     21.82945871	     17.88237297	      9.95042456	     29.19259030	     -0.47772553	    -13.63964434	     -5.88142245	      2.12415625	     -0.49522638	     -2.76846323	     -3.42106130	     -0.24054970	     12.09350494
      1.06716667	     -3.61759511	      0.47896252	     -4.90765298	     -0.14269560	      0.88110455	      0.38029263	    -14.41627222	      3.67214854	     -3.06856511	     -7.67789777	     22.01738820	     18.19009682	     10.23020360	     29.34838466	     -0.39300416	    -13.41972118	     -6.25646666	      1.98890288	     -0.71134377	     -2.71787522	     -3.31971210	     -0.40562060	     12.17530013
      1.07133333	     -3.70536493	      0.56389532	     -5.03145548	     -0.13706848	      0.88003048	      0.38033183	    -14.42278116	      3.48938947	     -3.02978393	     -8.26486166	     22.17854877	     18.35513069	     10.41380597	     29.50829122	     -0.31540654	    -13.21470067	     -6.71082888	      1.82926495	     -0.93240234	     -2.67098768	     -3.21166435	     -0.59037131	     12.20837626
      1.07550000	     -3.79150498	      0.66777509	     -5.13471571	     -0.13141076	      0.87900533	      0.38031548	    -14.40233290	      3.28229574	     -3.07633744	     -8.90922913	     22.29525863	     18.58219226	     10.62097828	     29.67444591	     -0.20726267	    -12.98856677	     -7.24179307	      1.61674592	     -1.26414187	     -2.60565220	     -3.10954349	     -0.78576050	     12.25202930
      1.07966667	     -3.82021292	      0.78544855	     -5.19612772	     -0.12568023	      0.87812515	      0.38020027	    -14.44531791	      3.05304730	     -3.24714727	     -9.54885722	     22.33149458	     18.97328709	     11.15845575	     29.76114091	     -0.04684796	    -12.68188006	     -7.78330826	      1.29422602	     -1.76906232	     -2.40632323	     -3.06578999	     -0.99287646	     12.30131949
      1.08383333	     -3.88114657	      0.92066393	     -5.28217127	     -0.11990999	      0.87728051	      0.38016715	    -14.45105755	      2.81548316	     -3.25097225	    -10.18186944	     22.20927043	     19.03472205	     14.88115291	     29.88863356	      0.10177048	    -12.48700418	     -8.39730711	      0.95187554	     -2.18583019	     -0.87449228	     -2.96091013	     -1.25189485	     12.24900334
      1.08800000	     -3.95036406	      1.03195001	     -5.35642673	     -0.11417951	      0.87646122	      0.38011008	    -14.41137452	      2.60627980	     -3.24688482	    -10.90023439	     22.20032698	     19.13968888	     14.93538098	     30.05878619	      0.22624369	    -12.27057447	     -9.13268802	      0.72506850	     -2.58481572	     -0.85184170	     -2.87412157	     -1.46486943	     12.26354855
      1.09216667	     -4.00208849	      1.17443683	     -5.40591672	     -0.10836400	      0.87574844	      0.37998383	    -14.38056227	      2.35787841	     -3.32228936	    -11.63586213	     22.09232202	     19.32570860	     15.04688896	     30.18447371	      0.40918566	    -12.00765101	     -9.84116833	      0.37489287	     -3.13515547	     -0.80850275	     -2.78295367	     -1.71913574	     12.23992354
      1.09633333	     -4.03337163	      1.32181028	     -5.43926715	     -0.10251174	      0.87513169	      0.37983284	    -14.35907712	      2.10458822	     -3.39987751	    -12.39636856	     21.94219168	     19.48512614	     15.22495268	     30.28854614	      0.60872033	    -11.73145125	    -10.58413816	      0.02513839	     -3.74185122	     -0.74106539	     -2.71673253	     -1.98028922	     12.19070865
      1.10050000	     -4.01266341	      1.48334786	     -5.45614300	     -0.09659448	      0.87466910	      0.37964115	    -14.38495346	      1.83133122	     -3.50483416	    -13.16644617	     21.67339251	     19.60052269	     18.56087791	     30.32789384	      0.83756180	    -11.48143666	    -11.33330731	     -0.36699512	     -4.38387389	      0.52573886	     -2.71780377	     -2.26411566	     12.11808010
      1.10466667	     -4.06330209	      1.62262383	     -5.45668903	     -0.09066806	      0.87417001	      0.37945218	    -14.31620215	      1.60011904	     -3.54592318	    -13.97300967	     21.32534194	     19.64691387	     18.61494962	     30.47222324	      1.03341655	    -11.23997048	    -12.17700096	     -0.63128234	     -4.89103723	      0.53834182	     -2.60968048	     -2.52297119	     12.05314273
      1.10883333	     -4.08115639	      1.78051148	     -5.44952880	     -0.08471198	      0.87379222	      0.37921786	    -14.24620395	      1.33863480	     -3.62181329	    -14.85132844	     20.99115972	     19.72468992	     18.74217841	     30.56263581	      1.26720780	    -10.96590088	    -12.99561575	     -0.93619399	     -5.53724949	      0.56266146	     -2.55052370	     -2.80116512	     11.95068119
      1.11300000	     -4.08616271	      1.93806775	     -5.41843093	     -0.07871227	      0.87350937	      0.37893819	    -14.17151186	      1.07923050	     -3.71608834	    -15.76454977	     20.58042825	     19.79666488	     18.94404563	     30.63650744	      1.51471624	    -10.68168463	    -13.82674271	     -1.21090813	     -6.17512565	      0.59726109	     -2.50321315	     -3.08149510	     11.83685504
      1.11716667	     -4.03686224	      2.10008860	     -5.37112338	     -0.07266999	      0.87338040	      0.37860386	    -14.13041934	      0.80209999	     -3.87094540	    -16.71271486	     20.05786623	     19.87913408	     22.96224958	     30.64452138	      1.78223259	    -10.40723404	    -14.65913226	     -1.47107085	     -6.81862685	      1.24529414	     -2.53210479	     -3.35490787	     11.74345145
